<svg width="34" height="24" viewBox="0 0 34 24" fill="none" xmlns="http://www.w3.org/2000/svg">
<g clip-path="url(#clip0_593_1724)">
<path d="M31.2507 13.4123C32.0808 12.6311 32.0808 11.3623 31.2507 10.5811L20.6257 0.581055C19.7957 -0.200195 18.4476 -0.200195 17.6175 0.581055C16.7875 1.3623 16.7875 2.63105 17.6175 3.41231L24.6234 9.99981L4.24995 9.99981C3.07456 9.99981 2.12495 10.8936 2.12495 11.9998C2.12495 13.1061 3.07456 13.9998 4.24995 13.9998L24.6234 13.9998L17.6242 20.5873C16.7941 21.3686 16.7941 22.6373 17.6242 23.4186C18.4542 24.1998 19.8023 24.1998 20.6324 23.4186L31.2574 13.4186L31.2507 13.4123Z" fill="#454545"/>
</g>
<defs>
<clipPath id="clip0_593_1724">
<rect width="24" height="34" fill="white" transform="matrix(0 1 -1 0 34 0)"/>
</clipPath>
</defs>
</svg>
