<svg width="32" height="33" viewBox="0 0 32 33" fill="none" xmlns="http://www.w3.org/2000/svg">
<path d="M15.3005 19.72C15.4872 19.9017 15.7375 20.0034 15.998 20.0034C16.2586 20.0034 16.5088 19.9017 16.6955 19.72L20.1955 16.305C20.2968 16.2152 20.3788 16.1058 20.4365 15.9834C20.4943 15.861 20.5266 15.7282 20.5315 15.5929C20.5364 15.4577 20.5138 15.3229 20.465 15.1966C20.4163 15.0704 20.3424 14.9553 20.2479 14.8584C20.1534 14.7616 20.0402 14.6849 19.9152 14.633C19.7902 14.5812 19.656 14.5553 19.5207 14.5568C19.3853 14.5584 19.2517 14.5874 19.128 14.642C19.0042 14.6967 18.8928 14.776 18.8005 14.875L17.0005 16.63V9C17.0005 8.73478 16.8952 8.48043 16.7076 8.29289C16.5201 8.10536 16.2657 8 16.0005 8C15.7353 8 15.4809 8.10536 15.2934 8.29289C15.1059 8.48043 15.0005 8.73478 15.0005 9V16.63L13.2005 14.875C13.0082 14.7045 12.7577 14.6146 12.5009 14.6239C12.2441 14.6332 12.0007 14.741 11.8213 14.925C11.6419 15.1089 11.5401 15.3549 11.5372 15.6118C11.5342 15.8688 11.6303 16.117 11.8055 16.305L15.3005 19.72Z" fill="#454545"/>
<path d="M21.6209 18.635C21.3556 18.635 21.1013 18.7404 20.9138 18.9279C20.7262 19.1154 20.6209 19.3698 20.6209 19.635V20.635C20.6195 20.9975 20.4746 21.3447 20.2178 21.6005C19.9611 21.8564 19.6133 22 19.2509 22H12.7509C12.5709 22 12.3928 21.9646 12.2266 21.8957C12.0604 21.8269 11.9093 21.726 11.7821 21.5987C11.6549 21.4715 11.554 21.3205 11.4851 21.1543C11.4163 20.9881 11.3809 20.8099 11.3809 20.63V19.63C11.3809 19.3648 11.2755 19.1104 11.088 18.9229C10.9004 18.7354 10.6461 18.63 10.3809 18.63C10.1156 18.63 9.86129 18.7354 9.67375 18.9229C9.48622 19.1104 9.38086 19.3648 9.38086 19.63V20.63C9.38218 21.5234 9.73766 22.3798 10.3694 23.0115C11.0011 23.6432 11.8575 23.9987 12.7509 24H19.2509C20.1442 23.9987 21.0006 23.6432 21.6323 23.0115C22.2641 22.3798 22.6195 21.5234 22.6209 20.63V19.63C22.6195 19.3657 22.5136 19.1126 22.3262 18.9261C22.1388 18.7397 21.8852 18.635 21.6209 18.635Z" fill="#454545"/>
<path d="M16 2C13.1322 2 10.3288 2.85041 7.94424 4.44369C5.55973 6.03697 3.70122 8.30156 2.60375 10.9511C1.50628 13.6006 1.21913 16.5161 1.77862 19.3288C2.33811 22.1415 3.7191 24.7252 5.74696 26.753C7.77482 28.7809 10.3585 30.1619 13.1712 30.7214C15.9839 31.2809 18.8994 30.9937 21.5489 29.8963C24.1984 28.7988 26.463 26.9403 28.0563 24.5558C29.6496 22.1713 30.5 19.3678 30.5 16.5C30.5 12.6544 28.9723 8.96623 26.2531 6.24695C23.5338 3.52767 19.8456 2 16 2ZM16 29C13.5277 29 11.111 28.2669 9.05538 26.8934C6.99976 25.5199 5.39761 23.5676 4.45151 21.2835C3.50542 18.9995 3.25788 16.4861 3.74019 14.0614C4.22251 11.6366 5.41302 9.40932 7.16117 7.66117C8.90933 5.91301 11.1366 4.7225 13.5614 4.24018C15.9861 3.75787 18.4995 4.00541 20.7835 4.95151C23.0676 5.8976 25.0199 7.49976 26.3934 9.55537C27.7669 11.611 28.5 14.0277 28.5 16.5C28.5 18.1415 28.1767 19.767 27.5485 21.2835C26.9203 22.8001 25.9996 24.1781 24.8388 25.3388C23.6781 26.4996 22.3001 27.4203 20.7835 28.0485C19.267 28.6767 17.6415 29 16 29Z" fill="#454545"/>
</svg>
