<svg width="26" height="28" viewBox="0 0 26 28" fill="none" xmlns="http://www.w3.org/2000/svg">
<path d="M11.8574 19.575C12.148 19.8475 12.5375 20 12.943 20C13.3486 20 13.7381 19.8475 14.0286 19.575L19.4761 14.454C19.6337 14.3193 19.7613 14.1553 19.8512 13.9717C19.9411 13.7882 19.9914 13.589 19.999 13.3862C20.0066 13.1834 19.9714 12.9812 19.8956 12.7919C19.8197 12.6025 19.7048 12.43 19.5577 12.2847C19.4106 12.1395 19.2344 12.0245 19.0399 11.9467C18.8453 11.869 18.6364 11.8301 18.4258 11.8324C18.2152 11.8347 18.0072 11.8782 17.8146 11.9602C17.6219 12.0423 17.4485 12.1611 17.3049 12.3096L14.5034 14.9413V3.49957C14.5034 3.10186 14.3394 2.72044 14.0475 2.43922C13.7556 2.15799 13.3597 2 12.9469 2C12.5341 2 12.1383 2.15799 11.8464 2.43922C11.5545 2.72044 11.3905 3.10186 11.3905 3.49957V14.9413L8.58896 12.3096C8.28969 12.0539 7.89976 11.9191 7.50007 11.933C7.10038 11.947 6.7216 12.1087 6.44232 12.3845C6.16303 12.6603 6.00468 13.0292 6.0001 13.4145C5.99553 13.7998 6.14509 14.172 6.41775 14.454L11.8574 19.575Z" fill="#454545"/>
<path d="M24.0363 16.0093C23.5154 16.0093 23.0159 16.2055 22.6477 16.5547C22.2794 16.904 22.0725 17.3776 22.0725 17.8715V19.7337C22.0699 20.4087 21.7853 21.0552 21.2811 21.5317C20.7768 22.0081 20.094 22.2756 19.3822 22.2756H6.61782C6.26452 22.2756 5.91468 22.2096 5.58828 22.0814C5.26187 21.9532 4.96529 21.7653 4.71547 21.5284C4.46565 21.2915 4.26748 21.0102 4.13228 20.7007C3.99708 20.3912 3.92749 20.0594 3.92749 19.7244V17.8622C3.92749 17.3683 3.7206 16.8947 3.35232 16.5454C2.98405 16.1962 2.48456 16 1.96375 16C1.44293 16 0.943442 16.1962 0.575168 16.5454C0.206894 16.8947 0 17.3683 0 17.8622V19.7244C0.00259713 21.388 0.700665 22.9828 1.94118 24.1592C3.1817 25.3356 4.86347 25.9975 6.61782 26H19.3822C21.1365 25.9975 22.8183 25.3356 24.0588 24.1592C25.2993 22.9828 25.9974 21.388 26 19.7244V17.8622C25.9974 17.3699 25.7894 16.8987 25.4214 16.5514C25.0534 16.2042 24.5554 16.0093 24.0363 16.0093Z" fill="#454545"/>
</svg>
