<svg width="26" height="28" viewBox="0 0 26 28" fill="none" xmlns="http://www.w3.org/2000/svg">
<path d="M11.8574 18.075C12.148 18.3475 12.5375 18.5 12.943 18.5C13.3486 18.5 13.7381 18.3475 14.0286 18.075L19.4761 12.954C19.6337 12.8193 19.7613 12.6553 19.8512 12.4717C19.9411 12.2882 19.9914 12.089 19.999 11.8862C20.0066 11.6834 19.9714 11.4812 19.8956 11.2919C19.8197 11.1025 19.7048 10.93 19.5577 10.7847C19.4106 10.6395 19.2344 10.5245 19.0399 10.4467C18.8453 10.369 18.6364 10.3301 18.4258 10.3324C18.2152 10.3347 18.0072 10.3782 17.8146 10.4602C17.6219 10.5423 17.4485 10.6611 17.3049 10.8096L14.5034 13.4413V1.99957C14.5034 1.60186 14.3394 1.22044 14.0475 0.939215C13.7556 0.657991 13.3597 0.5 12.9469 0.5C12.5341 0.5 12.1383 0.657991 11.8464 0.939215C11.5545 1.22044 11.3905 1.60186 11.3905 1.99957V13.4413L8.58896 10.8096C8.28969 10.5539 7.89976 10.4191 7.50007 10.433C7.10038 10.447 6.7216 10.6087 6.44232 10.8845C6.16303 11.1603 6.00468 11.5292 6.0001 11.9145C5.99553 12.2998 6.14509 12.672 6.41775 12.954L11.8574 18.075Z" fill="#FF6000"/>
<path d="M24.0363 15.0093C23.5154 15.0093 23.0159 15.2055 22.6477 15.5547C22.2794 15.904 22.0725 16.3776 22.0725 16.8715V18.7337C22.0699 19.4087 21.7853 20.0552 21.2811 20.5317C20.7768 21.0081 20.094 21.2756 19.3822 21.2756H6.61782C6.26452 21.2756 5.91468 21.2096 5.58828 21.0814C5.26187 20.9532 4.96529 20.7653 4.71547 20.5284C4.46565 20.2915 4.26748 20.0102 4.13228 19.7007C3.99708 19.3912 3.92749 19.0594 3.92749 18.7244V16.8622C3.92749 16.3683 3.7206 15.8947 3.35232 15.5454C2.98405 15.1962 2.48456 15 1.96375 15C1.44293 15 0.943442 15.1962 0.575168 15.5454C0.206894 15.8947 0 16.3683 0 16.8622V18.7244C0.00259713 20.388 0.700665 21.9828 1.94118 23.1592C3.1817 24.3356 4.86347 24.9975 6.61782 25H19.3822C21.1365 24.9975 22.8183 24.3356 24.0588 23.1592C25.2993 21.9828 25.9974 20.388 26 18.7244V16.8622C25.9974 16.3699 25.7894 15.8987 25.4214 15.5514C25.0534 15.2042 24.5554 15.0093 24.0363 15.0093Z" fill="#FF6000"/>
</svg>
