<svg width="31" height="28" viewBox="0 0 31 28" fill="none" xmlns="http://www.w3.org/2000/svg">
<path d="M13.6641 27.238L13.5176 27.0907L3.25195 16.6727C1.45312 14.8477 0.433594 12.2864 0.433594 9.60348V9.39217C0.433594 4.88429 3.36328 1.01673 7.41797 0.1715C9.72656 -0.315146 12.0879 0.267549 13.9688 1.71468C14.4961 2.12449 14.9883 2.59833 15.4336 3.14261C15.6797 2.83525 15.9434 2.55351 16.2246 2.29097C16.4414 2.08607 16.6641 1.89397 16.8984 1.71468C18.7793 0.267549 21.1406 -0.315146 23.4492 0.165097C27.5039 1.01033 30.4336 4.88429 30.4336 9.39217V9.60348C30.4336 12.2864 29.4141 14.8477 27.6152 16.6727L17.3496 27.0907L17.2031 27.238C16.7227 27.7247 16.0898 28 15.4336 28C14.7773 28 14.1445 27.7311 13.6641 27.238ZM14.4434 6.54273C14.4199 6.52352 14.4023 6.49791 14.3848 6.47229L13.3418 5.19164L13.3359 5.18524C11.9824 3.5268 9.9375 2.77122 7.94531 3.18743C5.21484 3.75732 3.24609 6.35703 3.24609 9.39217V9.60348C3.24609 11.4284 3.94336 13.1765 5.16797 14.4187L15.4336 24.8368L25.6992 14.4187C26.9238 13.1765 27.6211 11.4284 27.6211 9.60348V9.39217C27.6211 6.36344 25.6523 3.75732 22.9277 3.18743C20.9355 2.77122 18.8848 3.5332 17.5371 5.18524C17.5371 5.18524 17.5371 5.18524 17.5312 5.19164C17.5254 5.19805 17.5312 5.19164 17.5254 5.19805L16.4824 6.4787C16.4648 6.50431 16.4414 6.52352 16.4238 6.54913C16.1602 6.83728 15.8027 6.99736 15.4336 6.99736C15.0645 6.99736 14.707 6.83728 14.4434 6.54913V6.54273Z" fill="#FF6000"/>
</svg>
