<svg width="32" height="29" viewBox="0 0 32 29" fill="none" xmlns="http://www.w3.org/2000/svg">
<path d="M2.975 17.0148L14.2688 27.803C14.7375 28.2506 15.3562 28.5 16 28.5C16.6437 28.5 17.2625 28.2506 17.7313 27.803L29.025 17.0148C30.925 15.205 32 12.6662 32 10.0124V9.64145C32 5.17142 28.8438 1.36006 24.5375 0.624643C21.6875 0.138631 18.7875 1.09147 16.75 3.17621L16 3.94359L15.25 3.17621C13.2125 1.09147 10.3125 0.138631 7.4625 0.624643C3.15625 1.36006 0 5.17142 0 9.64145V10.0124C0 12.6662 1.075 15.205 2.975 17.0148Z" fill="#FF6000"/>
</svg>
