<svg width="32" height="32" viewBox="0 0 32 32" fill="none" xmlns="http://www.w3.org/2000/svg">
<path d="M7 16H3M7 16C7 17.0609 7.42143 18.0783 8.17157 18.8284C8.92172 19.5786 9.93913 20 11 20C12.0609 20 13.0783 19.5786 13.8284 18.8284C14.5786 18.0783 15 17.0609 15 16M7 16C7 14.9391 7.42143 13.9217 8.17157 13.1716C8.92172 12.4214 9.93913 12 11 12C12.0609 12 13.0783 12.4214 13.8284 13.1716C14.5786 13.9217 15 14.9391 15 16M29 16H15M29 6H25M25 6C25 7.06087 24.5786 8.07828 23.8284 8.82843C23.0783 9.57857 22.0609 10 21 10C19.9391 10 18.9217 9.57857 18.1716 8.82843C17.4214 8.07828 17 7.06087 17 6M25 6C25 4.93913 24.5786 3.92172 23.8284 3.17157C23.0783 2.42143 22.0609 2 21 2C19.9391 2 18.9217 2.42143 18.1716 3.17157C17.4214 3.92172 17 4.93913 17 6M17 6H3M29 26H25M25 26C25 27.0609 24.5786 28.0783 23.8284 28.8284C23.0783 29.5786 22.0609 30 21 30C19.9391 30 18.9217 29.5786 18.1716 28.8284C17.4214 28.0783 17 27.0609 17 26M25 26C25 24.9391 24.5786 23.9217 23.8284 23.1716C23.0783 22.4214 22.0609 22 21 22C19.9391 22 18.9217 22.4214 18.1716 23.1716C17.4214 23.9217 17 24.9391 17 26M17 26H3" stroke="#FF6000" stroke-width="3"/>
</svg>
