<svg width="20" height="15" viewBox="0 0 20 15" fill="none" xmlns="http://www.w3.org/2000/svg">
<g clip-path="url(#clip0_834_4)">
<path d="M18.3838 8.32376C18.8721 7.86803 18.8721 7.12793 18.3838 6.6722L12.1338 0.838867C11.6455 0.383138 10.8525 0.383138 10.3643 0.838867C9.87598 1.2946 9.87598 2.0347 10.3643 2.49043L14.4854 6.33314L2.50097 6.33314C1.80957 6.33314 1.25097 6.85449 1.25097 7.4998C1.25097 8.14512 1.80957 8.66647 2.50097 8.66647L14.4854 8.66647L10.3682 12.5092C9.87988 12.9649 9.87988 13.705 10.3682 14.1607C10.8564 14.6165 11.6494 14.6165 12.1377 14.1607L18.3877 8.32741L18.3838 8.32376Z" fill="#454545"/>
</g>
<defs>
<clipPath id="clip0_834_4">
<rect width="14" height="20" fill="white" transform="matrix(0 1 -1 0 20 0.5)"/>
</clipPath>
</defs>
</svg>
