<svg width="36" height="40" viewBox="0 0 36 40" fill="none" xmlns="http://www.w3.org/2000/svg">
<path d="M7.77159 21.8028L7.7721 21.8033L16.9482 31.0503C16.9482 31.0503 16.9483 31.0503 16.9483 31.0503C17.239 31.3432 17.6154 31.5 18 31.5C18.3846 31.5 18.7611 31.3432 19.0517 31.0503C19.0517 31.0503 19.0518 31.0503 19.0518 31.0503L28.2279 21.8033L28.2284 21.8028C29.6744 20.3498 30.5 18.3025 30.5 16.1534V15.8355C30.5 12.2187 28.0829 9.18177 24.8482 8.59894L7.77159 21.8028ZM7.77159 21.8028C6.32559 20.3498 5.5 18.3025 5.5 16.1534V15.8355C5.5 12.2187 7.91714 9.18177 11.1518 8.59894L7.77159 21.8028ZM18 11.6874L17.6332 11.2915L17.0238 10.6337C15.4789 8.96613 13.2921 8.21394 11.1519 8.59891L18 11.6874ZM18 11.6874L18.3668 11.2915M18 11.6874L18.3668 11.2915M18.3668 11.2915L18.9762 10.6337C20.5211 8.96613 22.7079 8.21394 24.8481 8.59891L18.3668 11.2915Z" fill="#F5F5F5" stroke="white"/>
</svg>
