<svg width="16" height="16" viewBox="0 0 16 16" fill="none" xmlns="http://www.w3.org/2000/svg">
<path d="M0 3C0 2.44687 0.510714 2 1.14286 2H14.8571C15.4893 2 16 2.44687 16 3C16 3.55313 15.4893 4 14.8571 4H1.14286C0.510714 4 0 3.55313 0 3ZM0 8C0 7.44688 0.510714 7 1.14286 7H14.8571C15.4893 7 16 7.44688 16 8C16 8.55312 15.4893 9 14.8571 9H1.14286C0.510714 9 0 8.55312 0 8ZM16 13C16 13.5531 15.4893 14 14.8571 14H1.14286C0.510714 14 0 13.5531 0 13C0 12.4469 0.510714 12 1.14286 12H14.8571C15.4893 12 16 12.4469 16 13Z" fill="#A0A0A0"/>
</svg>
