<svg width="18" height="18" viewBox="0 0 18 18" fill="none" xmlns="http://www.w3.org/2000/svg">
<path d="M14.1853 7.44346C14.1853 8.93074 13.7024 10.3046 12.8889 11.4193L16.9919 15.5247C17.397 15.9297 17.397 16.5875 16.9919 16.9925C16.5868 17.3976 15.9289 17.3976 15.5238 16.9925L11.4208 12.8871C10.3059 13.7037 8.93177 14.1832 7.44419 14.1832C3.7204 14.1832 0.703125 11.1665 0.703125 7.44346C0.703125 3.72039 3.7204 0.703705 7.44419 0.703705C11.168 0.703705 14.1853 3.72039 14.1853 7.44346ZM7.44419 12.1094C8.05706 12.1094 8.66392 11.9888 9.23014 11.7543C9.79635 11.5198 10.3108 11.1761 10.7442 10.7428C11.1775 10.3095 11.5213 9.79516 11.7558 9.22905C11.9904 8.66295 12.1111 8.0562 12.1111 7.44346C12.1111 6.83071 11.9904 6.22397 11.7558 5.65786C11.5213 5.09176 11.1775 4.57739 10.7442 4.14411C10.3108 3.71083 9.79635 3.36714 9.23014 3.13265C8.66392 2.89816 8.05706 2.77748 7.44419 2.77748C6.83133 2.77748 6.22447 2.89816 5.65825 3.13265C5.09204 3.36714 4.57756 3.71083 4.1442 4.14411C3.71084 4.57739 3.36708 5.09176 3.13255 5.65786C2.89801 6.22397 2.7773 6.83071 2.7773 7.44346C2.7773 8.0562 2.89801 8.66295 3.13255 9.22905C3.36708 9.79516 3.71084 10.3095 4.1442 10.7428C4.57756 11.1761 5.09204 11.5198 5.65825 11.7543C6.22447 11.9888 6.83133 12.1094 7.44419 12.1094Z" fill="white"/>
</svg>
