<svg width="18" height="18" viewBox="0 0 18 18" fill="none" xmlns="http://www.w3.org/2000/svg">
<path d="M11.6923 4.30769C11.6923 3.59365 11.3681 2.90885 10.7911 2.40394C10.2141 1.89904 9.43144 1.61538 8.61539 1.61538C7.79933 1.61538 7.01671 1.89904 6.43967 2.40394C5.86264 2.90885 5.53846 3.59365 5.53846 4.30769C5.53846 5.02174 5.86264 5.70654 6.43967 6.21144C7.01671 6.71635 7.79933 7 8.61539 7C9.43144 7 10.2141 6.71635 10.7911 6.21144C11.3681 5.70654 11.6923 5.02174 11.6923 4.30769ZM3.69231 4.30769C3.69231 3.16522 4.21099 2.06954 5.13424 1.26169C6.0575 0.453845 7.3097 0 8.61539 0C9.92107 0 11.1733 0.453845 12.0965 1.26169C13.0198 2.06954 13.5385 3.16522 13.5385 4.30769C13.5385 5.45016 13.0198 6.54584 12.0965 7.35369C11.1733 8.16154 9.92107 8.61539 8.61539 8.61539C7.3097 8.61539 6.0575 8.16154 5.13424 7.35369C4.21099 6.54584 3.69231 5.45016 3.69231 4.30769ZM1.89615 15.6154H15.3346C14.9923 13.4851 12.9 11.8462 10.3731 11.8462H6.85769C4.33077 11.8462 2.23846 13.4851 1.89615 15.6154ZM0 16.2313C0 12.9163 3.06923 10.2308 6.85769 10.2308H10.3731C14.1615 10.2308 17.2308 12.9163 17.2308 16.2313C17.2308 16.7832 16.7192 17.2308 16.0885 17.2308H1.14231C0.511539 17.2308 0 16.7832 0 16.2313Z" fill="#454545"/>
</svg>
