<svg width="29" height="26" viewBox="0 0 29 26" fill="none" xmlns="http://www.w3.org/2000/svg">
<g clip-path="url(#clip0_834_2)">
<path d="M14.4324 2.25C10.5046 2.25 7.35946 4.04688 5.06988 6.18555C2.79488 8.30469 1.27335 10.8438 0.553906 12.5869C0.39349 12.9727 0.39349 13.4023 0.553906 13.7881C1.27335 15.5312 2.79488 18.0703 5.06988 20.1895C7.35946 22.3281 10.5046 24.125 14.4324 24.125C18.3602 24.125 21.5053 22.3281 23.7949 20.1895C26.0699 18.0654 27.5914 15.5312 28.3157 13.7881C28.4761 13.4023 28.4761 12.9727 28.3157 12.5869C27.5914 10.8438 26.0699 8.30469 23.7949 6.18555C21.5053 4.04688 18.3602 2.25 14.4324 2.25ZM7.43238 13.1875C7.43238 11.3227 8.16988 9.53427 9.48263 8.21566C10.7954 6.89704 12.5759 6.15625 14.4324 6.15625C16.2889 6.15625 18.0694 6.89704 19.3821 8.21566C20.6949 9.53427 21.4324 11.3227 21.4324 13.1875C21.4324 15.0523 20.6949 16.8407 19.3821 18.1593C18.0694 19.478 16.2889 20.2188 14.4324 20.2188C12.5759 20.2188 10.7954 19.478 9.48263 18.1593C8.16988 16.8407 7.43238 15.0523 7.43238 13.1875ZM14.4324 10.0625C14.4324 11.7861 13.0372 13.1875 11.3213 13.1875C10.9761 13.1875 10.6456 13.1289 10.3345 13.0264C10.0671 12.9385 9.75599 13.1045 9.76571 13.3877C9.7803 13.7246 9.82891 14.0615 9.92127 14.3984C10.5872 16.8984 13.149 18.3828 15.6379 17.7139C18.1268 17.0449 19.6046 14.4717 18.9386 11.9717C18.399 9.94531 16.615 8.58301 14.6317 8.5C14.3497 8.49023 14.1845 8.79785 14.272 9.07129C14.374 9.38379 14.4324 9.71582 14.4324 10.0625Z" fill="#454545"/>
</g>
<defs>
<clipPath id="clip0_834_2">
<rect width="28" height="25" fill="white" transform="translate(0.433594 0.5)"/>
</clipPath>
</defs>
</svg>
