<svg width="10" height="14" viewBox="0 0 10 14" fill="none" xmlns="http://www.w3.org/2000/svg">
<g clip-path="url(#clip0_1052_608)">
<path d="M9.80777 2.31007C10.102 1.9382 10.0552 1.38585 9.701 1.07687C9.34683 0.767883 8.82079 0.817102 8.52652 1.18898L5.00048 5.63234L1.47443 1.18898C1.18016 0.817102 0.654122 0.767883 0.299956 1.07687C-0.0542111 1.38585 -0.101086 1.9382 0.193185 2.31007L3.91454 6.99952L0.193185 11.689C-0.101086 12.0609 -0.0542111 12.6132 0.299956 12.9222C0.654122 13.2312 1.18016 13.1819 1.47443 12.8101L5.00048 8.36671L8.52652 12.8101C8.82079 13.1819 9.34683 13.2312 9.701 12.9222C10.0552 12.6132 10.102 12.0609 9.80777 11.689L6.08641 6.99952L9.80777 2.31007Z" fill="#454545"/>
</g>
<defs>
<clipPath id="clip0_1052_608">
<rect width="10" height="14" fill="white"/>
</clipPath>
</defs>
</svg>
