<svg width="31" height="28" viewBox="0 0 31 28" fill="none" xmlns="http://www.w3.org/2000/svg">
<path d="M2.12807 27.4223C2.205 27.595 2.32717 27.7411 2.48027 27.8434C2.63338 27.9457 2.81106 28.0001 2.99248 28C5.73074 28 8.04729 27.2999 10.6787 25.669C11.9553 25.8816 14.476 26.1444 15.5828 26.1444C23.9368 26.1444 30.7319 20.2808 30.7319 13.0712C30.7319 5.86158 23.9368 0 15.5828 0C7.22868 0 0.433594 5.86158 0.433594 13.0712C0.433594 16.4694 1.99259 19.7533 4.73657 22.1866C4.10321 23.6915 3.26993 25.0943 2.26164 26.3531C2.02503 26.654 1.9716 27.0712 2.12807 27.4223ZM2.34179 13.0712C2.34179 6.96891 8.282 2.00401 15.5828 2.00401C22.8835 2.00401 28.8237 6.96891 28.8237 13.0712C28.8237 19.1735 22.8835 24.1384 15.5828 24.1384C14.4875 24.1384 11.6366 23.8295 10.673 23.6329C10.4398 23.5889 10.1994 23.6345 9.99556 23.7613C8.21712 24.9047 6.66576 25.5587 5.00563 25.8355C5.71696 24.7062 6.31186 23.5005 6.78025 22.2387C6.85605 22.0355 6.8665 21.8117 6.80999 21.6016C6.75349 21.3915 6.63313 21.2067 6.46731 21.0752C3.80537 18.9569 2.34179 16.1123 2.34179 13.0712Z" fill="#454545"/>
</svg>
